<?xml version="1.0" encoding="UTF-8" standalone="no"?>
<!-- Created with Inkscape (http://www.inkscape.org/) -->

<svg
   version="1.1"
   id="svg2"
   width="794.66669"
   height="794.66669"
   viewBox="0 0 794.66669 794.66669"
   sodipodi:docname="FK_Lofoten.eps"
   xmlns:inkscape="http://www.inkscape.org/namespaces/inkscape"
   xmlns:sodipodi="http://sodipodi.sourceforge.net/DTD/sodipodi-0.dtd"
   xmlns="http://www.w3.org/2000/svg"
   xmlns:svg="http://www.w3.org/2000/svg">
  <defs
     id="defs6" />
  <sodipodi:namedview
     id="namedview4"
     pagecolor="#ffffff"
     bordercolor="#000000"
     borderopacity="0.25"
     inkscape:showpageshadow="2"
     inkscape:pageopacity="0.0"
     inkscape:pagecheckerboard="0"
     inkscape:deskcolor="#d1d1d1" />
  <g
     id="g8"
     inkscape:groupmode="layer"
     inkscape:label="ink_ext_XXXXXX"
     transform="matrix(1.3333333,0,0,-1.3333333,0,794.66667)">
    <g
       id="g10"
       transform="scale(0.1)">
      <path
         d="M 0,5955.83 H 5952.76 V 3.07031 H 0 V 5955.83"
         style="fill:#ffffff;fill-opacity:1;fill-rule:evenodd;stroke:none"
         id="path12" />
      <path
         d="m 2251.9,3089.13 v -236.25 c 0,-11.88 0.74,-39.52 3.74,-56.09 4.63,-0.88 9.59,-1.5 12.23,-1.55 l 118.63,-1.83 v -258.82 h -665.39 v 262.83 h 120.46 c 2.25,0.04 6.03,0.49 10.06,1.15 2.58,17.58 3.38,42.99 3.38,54.31 l 1.15,699.03 c 0,61.68 -19.12,68.47 -48.07,73.76 -24,4.37 -57.05,3.31 -86.98,6.19 v 255.5 h 1100.98 l 27.52,-454.16 H 2723.67 V 2962.97 H 2470.5 l -5.62,114.62 c -0.1,2.05 -0.49,6.87 -1.38,9.46 -4.72,1.82 -16.32,2.08 -20.34,2.08 z m 330.1,427.65 -2.48,11.54 c -2.54,11.75 -10.32,48.51 -20.66,56.42 -10.7,8.17 -52.18,7.58 -64.95,7.58 H 2251.9 v -207.19 h 200.07 c 1.68,0 5.81,0.14 7.74,0.83 3.11,4.47 5.34,20.42 5.94,25.19 l 13.14,105.63 H 2582"
         style="fill:#edc21b;fill-opacity:1;fill-rule:evenodd;stroke:none"
         id="path14" />
      <path
         d="m 2211.73,3129.29 v -276.41 c 0,-18.05 1.67,-72.65 12.26,-86.32 7.16,-7.43 33.56,-11.33 43.26,-11.48 l 79.08,-1.22 v -179.11 h -585.05 v 182.5 h 80.33 c 9.01,0 32.62,3.81 42.52,8.77 9.17,17.46 11.05,69.28 11.05,86.86 v 690.98 c 0,79.1 -4.57,118.25 -96.56,123.67 l -37.34,2.2 v 177.46 h 1023 l 22.65,-373.82 H 2683.5 v -470.23 h -174.75 l -3.75,76.41 c -1.96,40.13 -23.98,49.74 -61.84,49.74 z m 420.03,347.32 -12.98,60.17 c -18.82,87.33 -36.92,95.72 -124.87,95.72 h -282.18 v -287.54 h 240.24 c 39.77,0 49.07,25.18 53.54,61.23 l 8.77,70.42 h 117.48"
         style="fill:#f9e34f;fill-opacity:1;fill-rule:evenodd;stroke:none"
         id="path16" />
      <path
         d="m 3622.81,3624.5 c -2.49,-18.07 -3.02,-44.57 -3.02,-56.46 v -85.79 l 154.89,142.65 -23.04,0.28 v -0.38 h -120.51 c -2.12,0 -5.13,-0.1 -8.32,-0.3 z m 102.32,262.86 h 652.83 l 0.09,-263.29 h -119.26 c -16.25,0 -58.79,-19.95 -73.98,-27.32 -33.56,-16.27 -65.22,-47.23 -92.33,-72.55 l -249.37,-233.1 373.6,-404.47 c 44.97,-48.69 72.56,-86.87 142.93,-91.25 l 113.04,-7.01 v -253.78 h -716.17 l -4.44,259.52 23.87,0.37 -156.15,166.82 v -109.87 c 0,-11.56 0.21,-38.73 3.06,-54.93 3.88,-0.36 7.86,-0.5 10.49,-0.55 l 118.3,-2.17 v -259.19 h -663.68 v 254.55 l 113.5,6.63 c 4.24,0.25 12.24,0.85 18.63,2.04 2.37,15.47 1.78,41.84 1.78,53.62 v 714.45 c 0,11.7 -0.67,38.99 -3.57,56.29 -3.75,0.31 -7.41,0.46 -9.84,0.46 h -120.5 v 264.73 h 637.17"
         style="fill:#edc21b;fill-opacity:1;fill-rule:evenodd;stroke:none"
         id="path18" />
      <path
         d="m 3579.62,3390.64 257.66,237.3 c 7.12,6.56 19.97,20.7 26.88,33.93 -7.48,1.43 -15.39,2.32 -19.49,2.37 l -79.37,0.94 v 182.01 h 572.5 l 0.07,-182.96 h -79.08 c -24.99,0 -69.04,-20.44 -91.5,-31.34 -37.9,-18.37 -71.67,-50.78 -102.24,-79.35 l -278.55,-260.36 400.7,-433.8 c 53.63,-58.06 86.73,-98.91 169.95,-104.09 l 75.36,-4.68 V 2574.75 H 3796 l -3.09,179.82 69.75,1.08 c -10.67,15.17 -24.64,31.28 -31.09,38.18 L 3579.62,3063 v -211.57 c 0,-19.18 0.36,-71.16 12.28,-86.09 6.44,-8.07 31.57,-9.39 40.7,-9.55 l 78.87,-1.45 v -179.59 h -583.34 v 176.5 l 75.67,4.42 c 11.75,0.68 40.76,3.12 48.85,13.97 10.6,14.21 9.39,64.63 9.39,81.79 v 714.45 c 0,19.6 -1.54,73.47 -12.62,88.88 -6.29,6.51 -32.77,8.04 -40.96,8.04 h -80.33 v 184.39 h 583.34 v -182.23 h -80.34 c -8.66,0 -33.04,-1.39 -40.32,-6.92 -9.76,-15.26 -11.19,-71.56 -11.19,-90 v -177.4"
         style="fill:#f9e34f;fill-opacity:1;fill-rule:evenodd;stroke:none"
         id="path20" />
      <path
         d="m 5260.63,3003.71 538.28,-289.73 H 145.422 L 627.586,2996.3 141.73,3255.24 h 5669.29 l -550.39,-251.53"
         style="fill:#edc21b;fill-opacity:1;fill-rule:evenodd;stroke:none"
         id="path22" />
      <path
         d="m 5170.42,3006.65 469.1,-252.5 H 293.523 l 416.375,243.8 -407.39,217.13 H 5626.49 l -456.07,-208.43"
         style="fill:#f9e34f;fill-opacity:1;fill-rule:evenodd;stroke:none"
         id="path24" />
      <path
         d="M 466.309,3168.21 H 5419.15 l -359.97,-154.91 394.4,-212.28 H 466.309 l 342.961,200.8 -342.961,166.39"
         style="fill:#1476c6;fill-opacity:1;fill-rule:evenodd;stroke:none"
         id="path26" />
      <path
         d="m 1672.75,3214.41 -64.27,-1.22 1366.21,1366.2 1363.11,-1363.1 -165.47,-0.04 -346.88,-985.99 -850.76,-850.76 -704.06,702.94 159.52,0.86 -757.4,1131.11"
         style="fill:#edc21b;fill-opacity:1;fill-rule:evenodd;stroke:none"
         id="path28" />
      <path
         d="m 1431.55,2979.45 463.64,463.64 0.03,101.23 292.41,302.08 114.54,1.34 672.52,674.85 790.49,-790.5 -0.12,81.08 281.21,-277.48 -43.88,-40.81 515.44,-515.43 L 2974.69,1436.31 1431.55,2979.45"
         style="fill:#f9e34f;fill-opacity:1;fill-rule:evenodd;stroke:none"
         id="path30" />
      <path
         d="m 1535.7,2979.45 1438.99,1439 1439,-1439 -1439,-1439 -1438.99,1439"
         style="fill:#edc21b;fill-opacity:1;fill-rule:evenodd;stroke:none"
         id="path32" />
      <path
         d="M 1630.37,2979.45 2974.69,4323.77 4319.01,2979.45 2974.69,1635.13 1630.37,2979.45"
         style="fill:#ffffff;fill-opacity:1;fill-rule:evenodd;stroke:none"
         id="path34" />
      <path
         d="M 1677.71,2979.45 2974.69,4276.43 4271.67,2979.45 2974.69,1682.47 1677.71,2979.45"
         style="fill:#78ca2a;fill-opacity:1;fill-rule:evenodd;stroke:none"
         id="path36" />
      <path
         d="m 1198.01,2548.14 247.3,206.11 170.79,-0.22 286.54,-289.72 2169.17,-4.89 274.66,293.1 155.07,3.31 249.85,-207.85 v -507.57 l -1172.5,0.58 94.56,93.98 -1436.31,10.89 103.15,-103.15 H 1198.01 v 505.43"
         style="fill:#edc21b;fill-opacity:1;fill-rule:evenodd;stroke:none"
         id="path38" />
      <path
         d="m 1238.17,2528.07 280.42,236.19 124.75,1.26 266.53,-263.93 2175.86,-11.46 252.45,258.3 50.37,51.01 322.68,-270.78 V 2082.88 H 3544.49 l 80.23,94.55 -1306.14,-12.61 85.5,-81.94 H 1238.17 v 445.19"
         style="fill:#f9e34f;fill-opacity:1;fill-rule:evenodd;stroke:none"
         id="path40" />
      <path
         d="m 1285.04,2508.41 332.88,281.48 299.72,-299.1 2122.11,10.62 289.04,287.02 335.58,-280.02 V 2129.74 H 1285.04 v 378.67"
         style="fill:#94d4ec;fill-opacity:1;fill-rule:evenodd;stroke:none"
         id="path42" />
      <path
         d="m 2291.07,2328.27 1338.58,1331.28 23.68,-23.66 -1338.66,-1331.35 -23.6,23.73"
         style="fill:#ffffff;fill-opacity:1;fill-rule:evenodd;stroke:none"
         id="path44" />
      <path
         d="m 2245.55,3020.83 692.44,688.66 -263.59,265.03 23.66,23.68 286.8,-289.31 -739.69,-735.15 -310.18,311.89 23.66,23.68 286.9,-288.48"
         style="fill:#ffffff;fill-opacity:1;fill-rule:evenodd;stroke:none"
         id="path46" />
      <path
         d="m 2260.5,3351.29 363.09,361.11 -114.52,115.16 23.66,23.68 138.43,-138.74 -412.09,-407.82 -135.78,137.1 23.66,23.68 113.55,-114.17"
         style="fill:#ffffff;fill-opacity:1;fill-rule:evenodd;stroke:none"
         id="path48" />
      <path
         d="m 3707.64,2926.96 -692.44,-688.66 263.59,-265.03 -23.66,-23.68 -286.8,289.31 739.69,735.15 310.18,-311.89 -23.66,-23.68 -286.9,288.48"
         style="fill:#ffffff;fill-opacity:1;fill-rule:evenodd;stroke:none"
         id="path50" />
      <path
         d="m 3692.7,2596.5 -363.1,-361.11 114.53,-115.16 -23.67,-23.68 -138.43,138.75 412.1,407.82 135.77,-137.11 -23.66,-23.67 -113.54,114.16"
         style="fill:#ffffff;fill-opacity:1;fill-rule:evenodd;stroke:none"
         id="path52" />
      <path
         d="M 1285.04,2508.41 H 4664.37 V 2129.74 H 1285.04 v 378.67"
         style="fill:#1476c6;fill-opacity:1;fill-rule:evenodd;stroke:none"
         id="path54" />
      <path
         d="m 901.629,3099.22 v -164.27 c 0,-12.34 0.496,-20.23 1.453,-23.66 0.992,-3.39 3.031,-6.18 6.106,-8.34 3.078,-2.18 8.058,-3.29 14.847,-3.29 h 4.117 v -5.46 h -94.695 v 5.46 h 4.805 c 7.691,0 13.168,1.01 16.422,2.98 3.261,1.97 5.484,4.7 6.613,8.14 1.176,3.44 1.769,11.52 1.769,24.17 v 104.1 c 0,9.31 -0.406,15.12 -1.222,17.4 -0.774,2.32 -2.266,4.29 -4.434,5.96 -2.176,1.62 -4.668,2.43 -7.476,2.43 -4.52,0 -10.004,-1.57 -16.477,-4.76 l -2.352,5.37 66.141,33.77 h 4.383"
         style="fill:#ffffff;fill-opacity:1;fill-rule:nonzero;stroke:none"
         id="path56" />
      <path
         d="m 1050.37,2994.61 c 0,-20.02 -2.49,-38.73 -7.55,-56.12 -2.99,-10.67 -7.02,-19.42 -12.14,-26.24 -5.07,-6.78 -10.86,-12.19 -17.29,-16.19 -6.47,-3.99 -13.484,-6.01 -21.089,-6.01 -8.649,0 -16.473,2.48 -23.449,7.38 -7.016,4.95 -13.172,12.03 -18.598,21.19 -3.899,6.72 -7.293,15.67 -10.191,26.84 -3.801,15.12 -5.704,30.69 -5.704,46.77 0,21.85 2.719,41.92 8.196,60.17 4.523,15.12 11.359,26.7 20.593,34.74 9.188,8.04 18.918,12.08 29.153,12.08 10.449,0 20.189,-4 29.239,-11.93 9.05,-7.94 15.71,-18.66 19.96,-32.06 5.93,-18.5 8.87,-38.68 8.87,-60.62 z m -40.83,0.3 c 0,35.2 -0.18,55.67 -0.53,61.48 -0.87,13.71 -3,23.01 -6.35,27.86 -2.22,3.14 -5.785,4.75 -10.765,4.75 -3.813,0 -6.797,-1.21 -9.012,-3.58 -3.262,-3.44 -5.477,-9.56 -6.61,-18.31 -1.179,-8.69 -1.718,-39.18 -1.718,-91.46 0,-28.42 0.863,-47.48 2.625,-57.19 1.312,-6.97 3.218,-11.67 5.703,-14.05 2.492,-2.37 5.75,-3.54 9.828,-3.54 4.434,0 7.729,1.57 9.949,4.76 3.72,5.5 5.84,14.05 6.35,25.57 l 0.53,63.71"
         style="fill:#ffffff;fill-opacity:1;fill-rule:nonzero;stroke:none"
         id="path58" />
      <path
         d="m 1144.29,2948.55 h -77.36 v 30.69 h 77.36 v -30.69"
         style="fill:#ffffff;fill-opacity:1;fill-rule:nonzero;stroke:none"
         id="path60" />
      <path
         d="m 1203.9,3099.22 v -164.27 c 0,-12.34 0.51,-20.23 1.46,-23.66 0.99,-3.39 3.03,-6.18 6.1,-8.34 3.08,-2.18 8.06,-3.29 14.86,-3.29 h 4.11 v -5.46 h -94.69 v 5.46 h 4.8 c 7.69,0 13.17,1.01 16.42,2.98 3.27,1.97 5.48,4.7 6.61,8.14 1.18,3.44 1.77,11.52 1.77,24.17 v 104.1 c 0,9.31 -0.41,15.12 -1.21,17.4 -0.78,2.32 -2.28,4.29 -4.45,5.96 -2.17,1.62 -4.66,2.43 -7.47,2.43 -4.52,0 -10,-1.57 -16.47,-4.76 l -2.35,5.37 66.13,33.77 h 4.38"
         style="fill:#ffffff;fill-opacity:1;fill-rule:nonzero;stroke:none"
         id="path62" />
      <path
         d="m 1350.11,2894.2 h -105.82 v 3.23 c 32.45,43.18 52.14,72.2 59.11,87.12 6.92,14.91 10.41,29.48 10.41,43.68 0,10.36 -2.9,19.02 -8.64,25.89 -5.76,6.83 -12.77,10.26 -21.1,10.26 -13.58,0 -24.17,-7.58 -31.68,-22.8 l -4.89,1.92 c 4.75,18.96 11.99,32.97 21.72,42.07 9.74,9.1 20.97,13.65 33.68,13.65 9.14,0 17.43,-2.37 24.94,-7.13 7.52,-4.75 13.4,-11.23 17.66,-19.46 4.26,-8.25 6.33,-15.98 6.33,-23.21 0,-13.09 -3.26,-26.44 -9.77,-39.99 -8.97,-18.26 -28.43,-43.74 -58.49,-76.4 h 38.84 c 9.55,0 15.75,0.4 18.65,1.31 2.85,0.91 5.21,2.38 7.07,4.5 1.85,2.12 4.29,6.62 7.32,13.4 h 4.76 l -10.1,-58.04"
         style="fill:#ffffff;fill-opacity:1;fill-rule:nonzero;stroke:none"
         id="path64" />
      <path
         d="m 4617.76,3099.22 v -164.27 c 0,-12.34 0.5,-20.23 1.46,-23.66 0.99,-3.39 3.03,-6.18 6.1,-8.34 3.08,-2.18 8.06,-3.29 14.85,-3.29 h 4.12 v -5.46 h -94.69 v 5.46 h 4.8 c 7.69,0 13.17,1.01 16.43,2.98 3.26,1.97 5.47,4.7 6.6,8.14 1.18,3.44 1.77,11.52 1.77,24.17 v 104.1 c 0,9.31 -0.41,15.12 -1.22,17.4 -0.77,2.32 -2.27,4.29 -4.43,5.96 -2.18,1.62 -4.67,2.43 -7.48,2.43 -4.52,0 -10.01,-1.57 -16.47,-4.76 l -2.35,5.37 66.13,33.77 h 4.38"
         style="fill:#ffffff;fill-opacity:1;fill-rule:nonzero;stroke:none"
         id="path66" />
      <path
         d="m 4646.32,2890.05 v 4.15 c 14.67,3.74 27.12,9.3 37.3,16.58 10.24,7.33 18.34,16.33 24.26,27.1 5.98,10.77 10.19,23.16 12.54,37.21 -5.47,-3.18 -10.13,-5.36 -13.98,-6.62 -3.85,-1.22 -7.88,-1.83 -12.13,-1.83 -13.63,0 -24.94,5.47 -33.99,16.44 -9.1,10.97 -13.63,25.94 -13.63,45 0,13.25 2.49,25.38 7.38,36.4 4.89,10.98 11.9,19.52 21,25.64 9.1,6.07 18.56,9.1 28.38,9.1 10.55,0 20.46,-3.38 29.83,-10.11 9.38,-6.68 16.88,-16.43 22.45,-29.17 5.57,-12.75 8.34,-27.26 8.34,-43.54 0,-21.13 -4.53,-41.36 -13.59,-60.72 -9.05,-19.37 -22.59,-34.89 -40.51,-46.63 -17.98,-11.67 -39.16,-17.99 -63.65,-19 z m 76.09,97.49 c 0.92,11.01 1.37,20.77 1.37,29.16 0,17.95 -1.86,34.69 -5.62,50.21 -2.08,8.6 -5.24,14.92 -9.41,18.97 -2.18,2.17 -5.07,3.23 -8.6,3.23 -4.44,0 -7.88,-2.13 -10.33,-6.32 -3.48,-5.87 -5.2,-16.94 -5.2,-33.37 0,-27.35 2.94,-46.21 8.79,-56.58 3.79,-6.73 8.91,-10.06 15.34,-10.06 3.48,0 8.01,1.57 13.66,4.76"
         style="fill:#ffffff;fill-opacity:1;fill-rule:nonzero;stroke:none"
         id="path68" />
      <path
         d="m 4768.54,2890.05 v 4.15 c 14.66,3.74 27.12,9.3 37.3,16.58 10.23,7.33 18.33,16.33 24.26,27.1 5.97,10.77 10.19,23.16 12.54,37.21 -5.48,-3.18 -10.14,-5.36 -13.98,-6.62 -3.86,-1.22 -7.88,-1.83 -12.14,-1.83 -13.63,0 -24.94,5.47 -33.99,16.44 -9.1,10.97 -13.63,25.94 -13.63,45 0,13.25 2.49,25.38 7.38,36.4 4.89,10.98 11.9,19.52 21.01,25.64 9.09,6.07 18.55,9.1 28.37,9.1 10.55,0 20.47,-3.38 29.83,-10.11 9.38,-6.68 16.89,-16.43 22.45,-29.17 5.57,-12.75 8.34,-27.26 8.34,-43.54 0,-21.13 -4.53,-41.36 -13.58,-60.72 -9.06,-19.37 -22.59,-34.89 -40.52,-46.63 -17.97,-11.67 -39.15,-17.99 -63.64,-19 z m 76.1,97.49 c 0.9,11.01 1.35,20.77 1.35,29.16 0,17.95 -1.85,34.69 -5.61,50.21 -2.09,8.6 -5.25,14.92 -9.42,18.97 -2.17,2.17 -5.07,3.23 -8.6,3.23 -4.44,0 -7.87,-2.13 -10.32,-6.32 -3.49,-5.87 -5.21,-16.94 -5.21,-33.37 0,-27.35 2.95,-46.21 8.79,-56.58 3.8,-6.73 8.91,-10.06 15.34,-10.06 3.49,0 8.02,1.57 13.68,4.76"
         style="fill:#ffffff;fill-opacity:1;fill-rule:nonzero;stroke:none"
         id="path70" />
      <path
         d="m 4992.11,2894.2 h -105.83 v 3.23 c 32.45,43.18 52.14,72.2 59.11,87.12 6.92,14.91 10.41,29.48 10.41,43.68 0,10.36 -2.89,19.02 -8.64,25.89 -5.75,6.83 -12.77,10.26 -21.1,10.26 -13.58,0 -24.17,-7.58 -31.68,-22.8 l -4.89,1.92 c 4.75,18.96 11.99,32.97 21.72,42.07 9.74,9.1 20.97,13.65 33.68,13.65 9.15,0 17.43,-2.37 24.95,-7.13 7.51,-4.75 13.4,-11.23 17.65,-19.46 4.26,-8.25 6.34,-15.98 6.34,-23.21 0,-13.09 -3.26,-26.44 -9.78,-39.99 -8.96,-18.26 -28.43,-43.74 -58.48,-76.4 h 38.84 c 9.55,0 15.74,0.4 18.64,1.31 2.85,0.91 5.21,2.38 7.06,4.5 1.86,2.12 4.3,6.62 7.34,13.4 h 4.75 l -10.09,-58.04"
         style="fill:#ffffff;fill-opacity:1;fill-rule:nonzero;stroke:none"
         id="path72" />
      <path
         d="m 2296.25,2476.74 c 48.66,1.82 88.18,-12.19 118.62,-41.86 30.37,-29.75 45.59,-66.93 45.59,-111.6 0,-38.15 -11.3,-71.69 -33.98,-100.69 -30.06,-38.46 -72.5,-57.69 -127.31,-57.69 -54.89,0 -97.41,18.32 -127.47,55.04 -23.68,29 -35.6,63.36 -35.6,103.11 0,44.67 15.45,81.92 46.28,111.67 30.91,29.83 68.81,43.84 113.87,42.02 z m 2.77,-19.92 c -74.61,0 -98.78,-82.98 -98.78,-135.73 0,-52.76 26.02,-136.66 98.31,-136.66 72.29,0 102.16,82.75 102.16,134.84 0,52.08 -27.09,137.55 -101.69,137.55"
         style="fill:#ffffff;fill-opacity:1;fill-rule:nonzero;stroke:none"
         id="path74" />
      <path
         d="m 3059.53,2473.87 c 48.67,1.82 88.18,-12.19 118.63,-41.86 30.36,-29.75 45.59,-66.93 45.59,-111.59 0,-38.16 -11.3,-71.7 -33.98,-100.69 -30.06,-38.46 -72.5,-57.69 -127.32,-57.69 -54.89,0 -97.41,18.32 -127.47,55.04 -23.68,28.99 -35.59,63.36 -35.59,103.11 0,44.67 15.45,81.92 46.28,111.67 30.91,29.82 68.81,43.83 113.86,42.01 z m 2.77,-19.91 c -74.61,0 -98.78,-82.98 -98.78,-135.74 0,-52.75 26.03,-136.66 98.32,-136.66 72.29,0 102.16,82.76 102.16,134.84 0,52.08 -27.1,137.56 -101.7,137.56"
         style="fill:#ffffff;fill-opacity:1;fill-rule:nonzero;stroke:none"
         id="path76" />
      <path
         d="m 4146.18,2473.29 169.35,-217.02 v 159.17 c 0,28.3 -4.03,53.39 -38.39,53.37 v 5.05 l 94.55,-0.57 v -4.48 c -36.1,-4.28 -37.18,-21.72 -37.18,-53.37 v -248.91 h -23.77 l -189.27,247.76 v -193.65 c 0,-32.21 4.94,-45.77 37.19,-49.08 v -5.12 l -94.61,-0.16 v 6 c 16.68,0.36 25.25,4.5 30.49,12.93 4.92,7.92 7.03,19.86 7.03,35.43 v 216.49 l -6.54,8.28 c -6.45,8.18 -12.14,13.57 -17.14,16.22 -4.92,2.58 -12.07,3.98 -21.37,4.3 v 7.36 h 89.66"
         style="fill:#ffffff;fill-opacity:1;fill-rule:nonzero;stroke:none"
         id="path78" />
      <path
         d="m 2725.91,2319.21 h -74.95 v -98.9 l 8.09,-37.6 c 1.77,-8.23 16.33,-11.58 29.22,-11.78 v -5.45 h -129.13 v 6.05 c 9.7,0 23.8,3.5 29.13,10.58 5.33,7.08 7.99,19.82 7.99,38.2 v 197.26 c 0,18.57 -2.63,31.42 -7.81,38.47 -5.2,7.11 -15.99,10.53 -29.31,11.48 v 6.17 h 240.37 l 3.58,-63.4 h -6.73 c -7.63,35.41 -21.77,44.11 -56.39,44.11 h -89.01 v -115.62 h 77.38 c 21.8,0 34.12,13.76 36.95,36.5 h 4.97 v -91.04 h -4.97 c -1.14,23.32 -16.93,34.97 -39.38,34.97"
         style="fill:#ffffff;fill-opacity:1;fill-rule:nonzero;stroke:none"
         id="path80" />
      <path
         d="m 3860.24,2319.21 h -74.94 l -0.64,-134.42 h 68.11 c 43.27,0 74.46,16.87 94.53,57.05 h 6.72 l -23.68,-76.35 -236.86,-0.01 v 6.05 c 9.7,0 23.8,3.5 29.13,10.58 5.33,7.08 7.99,19.82 7.99,38.2 v 197.26 c 0,18.57 -2.64,31.42 -7.81,38.47 -5.2,7.11 -15.98,10.53 -29.31,11.48 v 6.17 h 240.37 l 3.58,-63.4 h -6.73 c -7.63,35.41 -21.77,44.11 -56.39,44.11 h -89.01 v -115.62 h 77.38 c 21.8,0 34.12,13.76 36.95,36.5 h 4.97 v -91.04 h -4.97 c -1.14,23.32 -16.93,34.97 -39.39,34.97"
         style="fill:#ffffff;fill-opacity:1;fill-rule:nonzero;stroke:none"
         id="path82" />
      <path
         d="m 3481.1,2220.31 c 0,-18.37 2.63,-30.55 8.09,-37.6 5.16,-6.66 16.33,-11.58 29.22,-11.78 v -5.45 h -129.14 v 6.05 c 9.71,0 23.8,3.5 29.14,10.58 5.32,7.08 7.99,19.82 7.99,38.2 l -0.26,234.09 h -49.85 c -34.59,0 -48.75,-8.7 -56.39,-44.11 h -6.72 l 3.58,63.4 h 274.12 l 3.58,-63.4 h -6.73 c -7.63,35.41 -21.77,44.11 -56.39,44.11 h -50.24 v -234.09"
         style="fill:#ffffff;fill-opacity:1;fill-rule:nonzero;stroke:none"
         id="path84" />
      <path
         d="m 1859.59,2420.3 c 0,18.38 2.64,30.56 8.1,37.61 5.15,6.65 16.32,11.58 29.22,11.78 v 5.45 h -129.14 v -6.05 c 9.71,0 23.8,-3.5 29.12,-10.58 5.34,-7.08 8,-19.82 8,-38.21 v -197.26 c 0,-18.56 -2.64,-31.41 -7.8,-38.47 -5.2,-7.1 -15.99,-10.52 -29.32,-11.47 v -6.17 h 251.85 l 23.69,76.35 h -6.73 c -20.06,-40.18 -51.25,-57.06 -94.53,-57.06 h -82.46 v 234.08"
         style="fill:#ffffff;fill-opacity:1;fill-rule:nonzero;stroke:none"
         id="path86" />
      <path
         d="m 2164.87,3176.16 v -323.28 c 0,-31.16 2.06,-89.17 22.18,-115.15 16.13,-20.82 54.74,-29.12 79.47,-29.51 l 32.95,-0.51 v -86.09 h -491.33 v 88.76 h 33.47 c 19.95,0 65.66,7.98 78.32,24.82 19.74,26.23 22.11,86.42 22.11,117.68 v 711.55 c 0,86.52 -7.49,140 -102.8,146.76 l -31.1,2.2 v 86.93 h 932.03 l 16.97,-280.08 h -86.85 l -5.7,26.41 c -23.77,110.28 -60.1,132.71 -170.68,132.71 H 2164.87 V 3298.1 h 287.1 c 64.92,0 92.52,41.7 100.05,102.31 l 3.65,29.34 h 80.97 V 3050 h -83.27 l -1.56,31.84 c -3.23,65.94 -45.5,94.32 -108.65,94.32 h -278.29"
         style="fill:#ffffff;fill-opacity:1;fill-rule:evenodd;stroke:none"
         id="path88" />
      <path
         d="m 2443.16,3209.63 h -311.77 v -356.75 c 0,-66.29 9.5,-110.22 29.2,-135.64 18.59,-24.02 58.89,-41.76 105.4,-42.49 v -19.66 h -424.38 v 21.82 c 35.02,0 85.85,12.61 105.07,38.16 19.22,25.55 28.84,71.49 28.84,137.81 v 711.55 c 0,66.96 -9.52,113.31 -28.16,138.77 -18.75,25.62 -57.66,37.96 -105.75,41.38 v 22.27 h 867.05 l 12.92,-213.14 h -24.26 c -27.54,127.73 -78.53,159.12 -203.41,159.12 h -362.52 v -448.2 h 320.58 c 78.64,0 123.07,49.64 133.27,131.64 h 17.92 v -312.79 h -17.92 c -4.11,84.1 -61.05,126.15 -142.08,126.15"
         style="fill:#1476c6;fill-opacity:1;fill-rule:nonzero;stroke:none"
         id="path90" />
      <path
         d="m 3532.76,3283.76 336.27,309.71 c 22.79,20.99 49.17,55.8 46.47,88.83 -1.82,22.22 -55.19,28.61 -70.27,28.8 l -33.07,0.39 v 88.83 h 479.38 l 1.15,-89.22 h -33.9 c -34.26,0 -81.51,-21.27 -111.95,-36.03 -43.01,-20.86 -79.21,-54.97 -113.79,-87.29 l -312.59,-292.18 432.32,-468.03 c 63.16,-68.37 103.89,-112.98 201.47,-119.05 l 31.39,-1.95 v -84.95 h -543.58 l -1.48,86.82 33.51,0.52 c 15.04,0.25 45.41,8.73 48.64,18.29 10.16,30.04 -38.57,83.56 -56.95,103.2 l -304.89,311.78 -28.13,-20.16 v -270.64 c 0,-33.45 0.58,-87.88 22.52,-115.34 17.77,-22.25 49.83,-26.67 76.47,-27.16 l 32.86,-0.6 v -86.71 h -489.62 v 85.42 l 31.53,1.84 c 99.93,5.82 102.39,54.67 102.39,142.55 v 714.45 c 0,31.84 -2.05,89.24 -21.53,116.35 -16.36,22.76 -53.29,27.43 -78.92,27.43 h -33.47 v 90.66 h 489.62 v -88.49 h -33.48 c -24.54,0 -62.2,-3.88 -77.97,-25.85 -18.9,-26.31 -20.4,-86.93 -20.4,-117.94 v -284.28"
         style="fill:#ffffff;fill-opacity:1;fill-rule:evenodd;stroke:none"
         id="path92" />
      <path
         d="m 3208.46,2655.09 v 20.37 c 123.67,7.2 133.92,75.12 133.92,175.97 v 714.45 c 0,66.96 -9.41,110.26 -27.82,135.89 -18.29,25.45 -53.56,41.37 -106.1,41.37 v 23.71 h 422.67 v -21.55 c -49.78,0 -86.18,-13.36 -105.16,-39.79 -19.1,-26.6 -26.69,-72.48 -26.69,-137.47 v -360.61 l 392.42,361.42 c 41.46,38.18 60.03,81.06 57.16,116.18 -2.61,31.91 -40.52,58.79 -103.22,59.54 v 22.28 h 412.86 l 0.29,-22.28 c -35.71,0 -80.55,-17.07 -126.56,-39.38 -46,-22.32 -83.31,-56.76 -122.04,-92.96 l -336.89,-314.89 454.89,-492.48 c 70.57,-76.39 117.07,-123.1 223.98,-129.75 v -20.02 h -477.21 l -0.34,20.41 c 58.8,0.92 80.7,21.36 85.62,47.95 6.33,34.18 -18.7,80.28 -67.73,129.87 l -334.08,337.9 -59.15,-54.13 v -285.66 c 0,-99.37 14.13,-173.81 131.85,-175.97 v -20.37 h -422.67"
         style="fill:#1476c6;fill-opacity:1;fill-rule:nonzero;stroke:none"
         id="path94" />
      <path
         d="m 2974.34,3283.27 c 147.12,0.02 268.68,-121.55 268.68,-268.66 0,-147.12 -121.56,-268.68 -268.67,-268.68 -147.12,0 -268.68,121.57 -268.68,268.68 0.01,147.11 121.56,268.67 268.67,268.66"
         style="fill:#ffffff;fill-opacity:1;fill-rule:evenodd;stroke:none"
         id="path96" />
      <path
         d="m 2974.35,3289.64 c 151.88,0 275.03,-123.16 275.03,-275.03 0,-151.88 -123.16,-275.04 -275.03,-275.04 -151.87,0 -275.03,123.16 -275.04,275.04 0.01,151.87 123.17,275.03 275.04,275.03 z m 155.35,-370.66 -52.66,32.54 c -29.7,-20.27 -63.4,-39.54 -105.74,-50.41 l -17.59,-55.67 c 17.49,-20.97 35.17,-34.97 56.05,-42.56 39.85,5.08 76.35,21.3 106.26,45.42 10.22,19 17.04,45.27 13.68,70.68 z m -48.2,41.57 51.88,-32.04 c 31.71,19.77 47.15,35.25 59.28,50.13 1.94,11.47 2.98,23.23 2.98,35.23 0,25.07 -4.42,49.16 -12.48,71.55 -20.35,15.75 -50.71,21.33 -81.78,24.57 l -34.66,-34.48 c 9.91,-34.19 17.57,-71.83 14.78,-114.96 z m -137.87,-113.69 17.52,55.48 c -28.7,22.16 -57.71,48.5 -81.26,85.89 l -56.44,-3.99 c -17.5,-25.05 -23.65,-52.01 -23.85,-77.83 17.67,-29.93 42.45,-55.25 71.99,-73.53 21.27,-1.63 46.23,-0.96 72.04,13.98 z m 116.88,236.64 34.67,34.48 c -1.07,33.28 -11.68,65.26 -23.06,88.86 -27.17,12.67 -57.39,19.76 -89.2,19.76 -3.11,0 -6.2,-0.05 -9.27,-0.19 -19.59,-20.61 -40.24,-44.45 -54.77,-73.42 l 25.56,-47.42 c 36.2,-1.13 75.09,-5.51 116.07,-22.07 z m -237.99,-89.26 56.13,3.97 c 12.2,34.01 28.31,69.56 56.53,103.36 l -25.86,47.98 c -31.28,9.62 -64.34,7.97 -89.34,0.66 -21.35,-25.44 -36.89,-55.94 -44.5,-89.33 9.56,-22.43 24.77,-45.11 47.04,-66.64 z m 151.15,242.22 c -8.48,12.97 -20.55,27.02 -34.12,40.81 11.4,1.52 23,2.32 34.8,2.32 52,0.01 100.62,-15.2 141.67,-41.37 -13.73,-6.34 -27.32,-13.69 -39.9,-21.97 -28.37,13.09 -59.92,20.4 -93.2,20.4 -3.1,0 -6.18,-0.06 -9.25,-0.19 z m -174.18,-23.22 c 3.03,-19.78 7.23,-39.89 11.81,-57.32 -20.6,-24.88 -35.92,-54.33 -44.19,-86.58 -19.1,-4.31 -37.86,-10.86 -55.23,-18.5 8.89,64.23 41.05,121.32 87.61,162.4 z m 394.6,-128.28 c 7.97,10.24 15.61,22.59 22.76,36.05 14.43,-32.6 22.49,-68.62 22.49,-106.4 0,-17.97 -1.84,-35.53 -5.3,-52.52 -10.52,10.29 -20.77,19.79 -29.68,27.58 0.86,7.95 1.33,16.02 1.33,24.2 0,24.85 -4.09,48.76 -11.6,71.09 z m -401.82,-186.3 c -17.15,1.26 -38.56,4.29 -60.17,8.98 26.08,-58.53 72.81,-106.1 130.79,-133.23 -1.21,18.22 -1.59,36.53 -1.19,52.58 -28.2,18.33 -51.98,42.88 -69.43,71.67 z m 231.36,-103.81 c -3.88,-12.56 -9.25,-27.51 -16.15,-43.12 55.71,7.04 106.17,31.54 145.69,67.83 -16.18,3.4 -30.74,7.54 -41.78,12.33 -25.75,-18.21 -55.54,-31.08 -87.76,-37.04"
         style="fill:#231f20;fill-opacity:1;fill-rule:evenodd;stroke:none"
         id="path98" />
    </g>
  </g>
</svg>
