<?xml version="1.0" encoding="UTF-8" standalone="no"?>
<!-- Created with Inkscape (http://www.inkscape.org/) -->

<svg
   version="1.1"
   id="svg471"
   width="1200"
   height="1200"
   viewBox="0 0 1200 1200"
   sodipodi:docname="logo900.svg"
   inkscape:version="1.2.1 (9c6d41e410, 2022-07-14, custom)"
   xmlns:inkscape="http://www.inkscape.org/namespaces/inkscape"
   xmlns:sodipodi="http://sodipodi.sourceforge.net/DTD/sodipodi-0.dtd"
   xmlns="http://www.w3.org/2000/svg"
   xmlns:svg="http://www.w3.org/2000/svg">
  <defs
     id="defs475" />
  <sodipodi:namedview
     id="namedview473"
     pagecolor="#ffffff"
     bordercolor="#000000"
     borderopacity="0.25"
     inkscape:showpageshadow="2"
     inkscape:pageopacity="0.0"
     inkscape:pagecheckerboard="0"
     inkscape:deskcolor="#d1d1d1"
     showgrid="false"
     inkscape:zoom="0.68333333"
     inkscape:cx="599.26829"
     inkscape:cy="600"
     inkscape:window-width="1920"
     inkscape:window-height="1044"
     inkscape:window-x="0"
     inkscape:window-y="36"
     inkscape:window-maximized="1"
     inkscape:current-layer="g477" />
  <g
     inkscape:groupmode="layer"
     inkscape:label="Image"
     id="g477">
    <path
       style="fill:#000000;stroke-width:1.33333"
       d="M 571.59584,1205.1329 C 484.42151,1198.8915 413.37347,1180.0457 340.76419,1143.9037 187.87555,1067.8019 76.305594,930.1493 32.868574,764.02871 20.553494,716.9309 15.104624,672.48366 15.042834,618.62155 c -0.0977,-85.18059 13.69104,-152.59719 48.26919,-236 5.67872,-13.69713 28.87323,-57.78201 38.716186,-73.58631 C 141.2328,246.08656 194.11787,188.65842 253.27547,144.79514 341.17273,79.622407 447.30909,39.848415 556.1228,31.304855 c 22.33623,-1.75374 72.73883,-1.72909 95.53983,0.04673 98.7797,7.69326 195.5421,41.2494 278.5999,96.615395 54.05,36.02956 107.26137,86.47898 146.24557,138.65457 38.29,51.24653 69.691,112.44587 88.5942,172.66667 12.7183,40.517 19.7128,74.11957 24.701,118.66667 3.2125,28.68931 3.2243,90.07993 0.023,118.66666 -8.2597,73.75189 -26.9582,138.6014 -57.8264,200.55165 -29.1769,58.55601 -60.6895,103.04511 -105.7372,149.2789 -49.88317,51.1964 -101.35627,88.6831 -163.91367,119.3743 -61.9672,30.4017 -126.4132,48.8892 -198.0863,56.8246 -17.9064,1.9826 -77.38964,3.5757 -92.66669,2.4819 z m 77.33329,-55.191 c 29.5516,-2.1997 68.4408,-8.3393 89.083,-14.064 9.7911,-2.7153 40.1213,-12.3945 43.5837,-13.9087 1.4667,-0.6414 9.8667,-3.9628 18.6667,-7.3808 32.4593,-12.6074 72.8229,-33.9234 105.5022,-55.7156 35.4171,-23.6178 88.0058,-72.5813 116.98237,-108.91792 44.6748,-56.02228 80.4787,-126.91898 99.9929,-198 16.112,-58.68826 20.2206,-146.84529 10.129,-217.33333 -4.771,-33.32432 -8.1875,-47.76291 -19.0943,-80.69395 -22.0327,-66.52426 -54.7626,-125.59814 -99.3444,-179.30605 -14.64196,-17.63936 -51.63187,-54.10164 -71.50117,-70.48129 -26.8499,-22.13439 -45.382,-34.78254 -78,-53.23491 -33.0658,-18.7058 -79.9789,-38.20608 -120.6666,-50.15738 -19.1882,-5.636166 -44.169,-10.227256 -78,-14.335176 -27.6464,-3.356951 -96.68777,-3.375255 -124.66669,-0.033 -52.78052,6.30487 -100.98008,18.664036 -138.66667,35.556446 -1.46666,0.65741 -7.16666,3.10981 -12.66666,5.44977 -12.10388,5.14958 -37.4622,17.79192 -49.33334,24.59505 -15.43181,8.84368 -16.56581,9.50875 -24,14.07551 -48.36413,29.70971 -102.69452,79.82129 -141.55709,130.56504 -37.852,49.42423 -71.68935,118.33752 -89.889426,183.0692 -10.83308,38.52973 -16.55349,86.3098 -16.55349,138.26413 0,77.39294 11.22852,135.54328 39.005096,202 6.12351,14.65076 23.30865,49.75575 30.67758,62.66667 24.51855,42.9584 47.30903,72.40111 86.26625,111.44614 37.47387,37.55845 67.39799,61.04275 107.17098,84.10765 21.14214,12.2606 55.06422,28.8835 74.21344,36.367 6.96666,2.7225 14.16666,5.5693 16,6.3262 13.12408,5.4183 53.47873,17.3018 68.66666,20.2208 16.89064,3.2462 48.01251,7.4772 64,8.7006 21.234,1.625 73.08466,1.7088 93.99996,0.152 z M 518.26672,997.7098 c 0.003,-1.0401 5.02613,-3.3543 12.33333,-5.6814 6.78102,-2.1596 13.22912,-4.3893 14.32912,-4.9549 1.1,-0.5655 9.5,-4.05307 18.66667,-7.75 17.44303,-7.03482 27.02087,-12.09226 24.52943,-12.9524 -0.80882,-0.27924 -10.70882,2.47209 -22,6.11406 -27.15776,8.75975 -68.63816,18.33814 -91.1961,21.05834 -13.64825,1.6459 -52.62721,1.1753 -67.03756,-0.8093 -14.44289,-1.9891 -16.8826,-3.8998 -7.52784,-5.8956 34.71311,-7.40592 96.18966,-23.86486 107.89874,-28.88741 1.46666,-0.62912 5.06666,-1.86588 8,-2.74836 6.7444,-2.02903 13.12601,-5.23304 12.2225,-6.13655 -0.38058,-0.38058 -5.98634,0.82095 -12.45724,2.67008 -15.82668,4.52264 -32.4588,8.46508 -46.67512,11.06374 -6.46624,1.182 -14.45681,2.66196 -17.75681,3.2888 -36.71136,6.97342 -106.29488,7.87418 -135.71875,1.75689 -6.15013,-1.27863 -4.60589,-3.6956 3.16178,-4.94867 3.60633,-0.58176 13.45697,-2.31809 21.8903,-3.8585 8.43334,-1.54043 16.83334,-2.95815 18.66667,-3.15048 4.25383,-0.4463 29.07443,-5.49415 38.66667,-7.86378 4.03333,-0.99638 10.63333,-2.52622 14.66666,-3.39966 22.14447,-4.7955 53.33334,-15.67052 53.33334,-18.59644 0,-1.88184 -0.62247,-1.80406 -10.60732,1.32546 -14.7316,4.61728 -49.99803,12.23128 -73.39268,15.84544 -41.2535,6.37312 -89.94663,9.05448 -117.33334,6.46116 -10.81961,-1.02453 -31.26506,-5.1473 -40.34717,-8.13589 -3.10905,-1.02308 -8.50283,-2.67575 -11.98616,-3.6726 -3.48333,-0.99685 -6.33333,-2.57004 -6.33333,-3.49596 0,-2.04691 3.15689,-2.78503 15.33333,-3.58513 11.23876,-0.7385 36.0288,-3.28462 40.66667,-4.17676 1.83333,-0.35266 6.03333,-0.95076 9.33333,-1.32912 3.3,-0.37835 11.4,-1.62415 18,-2.76842 6.6,-1.14428 15.67184,-2.62073 20.15964,-3.28101 10.32137,-1.51855 68.60115,-13.16135 69.90032,-13.96427 0.53336,-0.32964 13.78807,-3.91588 29.45489,-7.96942 35.2243,-9.11374 46.59272,-12.55518 49.1042,-14.86475 2.30583,-2.12048 0.86112,-2.27008 -17.95238,-1.85888 -6.6,0.14425 -16.2,-0.40399 -21.33334,-1.21831 -9.86202,-1.56445 -27.33333,-7.69789 -27.33333,-9.59557 0,-0.61747 4.65,-1.13217 10.33333,-1.14379 15.152,-0.0309 40.6042,-2.28289 54.33334,-4.80728 17.37714,-3.19514 42.03088,-13.86657 46.8994,-20.30053 4.28929,-5.66847 7.79594,-8.68596 16.50706,-14.20441 8.14716,-5.16119 26.62723,-22.86104 29.42863,-28.18618 1.19263,-2.26705 6.13037,-7.0526 10.97275,-10.63454 4.84237,-3.58194 8.81658,-7.4914 8.83157,-8.6877 0.0336,-2.6811 -7.82445,-8.82252 -16.36027,-12.78628 -13.26404,-6.15941 -29.16298,-20.7625 -37.87069,-34.78404 -4.87385,-7.8481 -3.72269,-10.08201 2.67917,-5.19906 2.36815,1.80626 7.89222,4.05684 12.27572,5.00125 4.3835,0.94443 8.60734,2.19797 9.38631,2.78567 2.28192,1.72157 28.16824,3.0957 26.58368,1.41116 -0.73333,-0.77962 -11.23213,-6.31652 -23.33067,-12.30424 -27.73242,-13.72512 -41.50993,-22.84119 -56.66933,-37.49598 -9.96113,-9.62954 -11.59116,-11.75862 -9.59368,-12.53096 2.14364,-0.82885 4.39659,-0.0647 14.58799,4.94815 6.24445,3.07145 34.91144,11.90143 40.57761,12.49868 l 6.42808,0.67757 -8.70145,-4.35676 c -4.7858,-2.39621 -11.89352,-5.72945 -15.79492,-7.4072 -13.09764,-5.63245 -44.05955,-25.17777 -59.24239,-37.39792 -15.73173,-12.66194 -42.57813,-49.55162 -36.06109,-49.55162 0.47674,0 5.42674,2.903 11,6.4511 25.30565,16.11039 73.06005,39.93503 85.79985,42.80552 2.75,0.61962 5,0.86451 5,0.54419 0,-0.32031 -5.55,-3.3148 -12.33333,-6.65443 -45.56983,-22.43529 -89.6333,-62.08306 -112.847,-101.5384 -2.28415,-3.88226 -4.153,-7.33226 -4.153,-7.66666 0,-1.34232 5.09804,-0.49863 6.39704,1.05868 1.6257,1.94897 25.5235,18.47852 45.69481,31.60604 25.30363,16.46762 50.22941,28.59885 57.10905,27.79461 2.78626,-0.32572 0.56962,-2.01169 -11.85142,-9.01421 -13.2054,-7.4447 -34.72951,-21.26547 -46.80396,-30.05311 -5.25534,-3.82477 -24.09876,-19.97265 -34.22992,-29.33333 -19.43224,-17.95442 -38.38828,-46.67082 -44.88759,-68 -1.34075,-4.4 -2.72473,-8.75 -3.07552,-9.66667 -1.51361,-3.95529 4.64621,-1.13791 11.66056,5.33333 17.75661,16.38174 46.26084,38.0058 74.23468,56.31643 15.98357,10.46224 19.20689,12.31536 30.78996,17.70148 10.13857,4.71444 15.96656,5.27273 8.90916,0.85347 -2.22924,-1.39592 -8.82924,-6.0971 -14.66667,-10.44704 -5.83744,-4.34996 -15.10605,-11.24996 -20.59692,-15.33334 -52.41525,-38.97953 -90.18706,-82.39673 -102.73078,-118.08502 -1.28992,-3.66995 -2.77111,-7.72264 -3.29155,-9.00598 -2.05852,-5.07612 4.29465,-2.08389 14.15484,6.66667 47.51979,42.17211 87.67571,74.32143 103.86664,83.15691 2.17388,1.18629 4.77496,2.83946 5.78017,3.67372 1.79188,1.48712 16.19914,6.83604 18.41282,6.83604 2.35933,0 0.96574,-4.08814 -2.89092,-8.48063 -3.35096,-3.81655 -39.94962,-32.81559 -49.87598,-39.51937 -8.49302,-5.73578 -34.16957,-28.05442 -49.853,-43.33334 -33.91558,-33.04086 -58.00842,-66.00484 -73.76334,-100.92349 -11.00431,-24.38955 -19.57568,-54.09209 -16.20984,-56.17231 0.66218,-0.40924 5.31797,3.8699 10.3462,9.50919 33.26572,37.30848 57.8561,62.40325 86.03814,87.80295 19.2905,17.38598 38.56975,33.68934 48.66667,41.15458 2.93333,2.16879 8.87488,6.84784 13.20345,10.39788 4.32856,3.55004 10.02856,7.86071 12.66667,9.57927 2.63809,1.71857 8.09655,5.55589 12.12988,8.5274 10.49217,7.72999 26.15241,18.90216 31.94683,22.7912 19.05877,12.79169 52.61906,39.96208 72.32229,58.55208 10.14753,9.5742 11.64349,9.70987 3.90113,0.3538 -15.18909,-18.35489 -31.00292,-45.91552 -37.2419,-64.90588 -4.18811,-12.74783 -6.30639,-24.66667 -4.38388,-24.66667 1.79217,0 5.9036,4.02027 11.5903,11.33334 2.85123,3.66666 10.28732,12.60726 16.52464,19.86798 6.23732,7.26074 14.00078,16.56074 17.25212,20.66667 15.48724,19.55797 51.40646,51.92515 54.35326,48.97832 2.1454,-2.14539 -2.518,-8.64748 -17.8749,-24.92293 -9.38113,-9.94215 -18.81924,-20.14215 -20.97364,-22.66667 -2.15438,-2.52452 -7.92068,-9.09004 -12.81398,-14.59004 -13.98506,-15.719 -32.74562,-42.60056 -43.05067,-61.68628 -5.11749,-9.478 -14.27559,-30.40899 -17.42627,-39.82808 -6.20773,-18.55829 -11.66986,-54.85849 -8.68829,-57.74064 1.63901,-1.58435 2.37389,-0.73763 10.34692,11.92167 2.7712,4.4 6.80348,10.63048 8.96063,13.8455 2.15714,3.21504 5.72208,8.70966 7.92208,12.21028 7.34592,11.68876 34.77396,48.4197 47.14862,63.14022 19.15446,22.78557 27.5814,31.83726 54.7453,58.804 60.2925,59.85485 90.7151,100.7286 106.1879,142.66666 1.8939,5.13334 3.9626,10.53334 4.597,12 0.6345,1.46667 1.5277,4.16667 1.985,6 1.7698,7.09586 6.3813,18.66667 7.4395,18.66667 0.6114,0 3.218,-1.42943 5.7924,-3.17649 2.5745,-1.74707 6.9511,-3.58008 9.7259,-4.07336 2.7748,-0.49327 9.845,-2.33674 15.7117,-4.09659 23.3687,-7.01001 58.1781,-10.74323 90,-9.65223 16.2491,0.55708 23.0594,2.76327 32.8099,10.62872 2.1212,1.71111 6.3176,4.76415 9.3253,6.78454 3.0077,2.02038 9.8789,8.85302 15.2694,15.18365 5.3905,6.33063 12.4258,13.92969 15.6339,16.88683 8.4887,7.82461 10.0742,11.62246 9.3102,22.301 -0.7189,10.04682 -4.006,16.69752 -10.5589,21.36362 l -4.0223,2.86408 -3.5504,-2.88285 c -6.8141,-5.53284 -17.2097,-9.46425 -25.0258,-9.46425 -11.7275,0 -37.7381,5.04301 -45.5809,8.83737 -6.2386,3.01821 -8.0888,4.9832 -15.9647,16.95491 -4.8996,7.44758 -10.1555,16.38422 -11.6797,19.85922 -1.5243,3.47499 -4.2937,7.97499 -6.1542,10 -5.6291,6.12654 -15.6984,19.88931 -21.3116,29.12879 -7.3323,12.06933 -25.0909,47.83968 -25.9952,52.36123 -0.6674,3.33728 0.3848,4.69958 10.2737,13.30088 12.5829,10.9446 17.8678,13.68228 41.6188,21.55952 20.2761,6.72473 21.5559,6.65341 39.5168,-2.20219 13.4194,-6.61647 16.5135,-9.3428 28.8893,-25.45572 4.0791,-5.31079 7.9206,-9.96752 8.5367,-10.34829 0.6161,-0.38076 4.2226,-1.28068 8.0146,-1.99982 5.5831,-1.0588 8.6862,-2.85338 16.3139,-9.43472 13.1308,-11.32937 18.9779,-14.80097 24.0939,-14.30517 4.7727,0.46253 5.9278,4.05255 1.5706,4.88141 -1.4666,0.279 -4.2814,1.65296 -6.2549,3.05324 -3.2049,2.27398 -3.5611,3.3103 -3.3333,9.69986 0.3528,9.90172 -1.2622,11.47209 -18.7451,18.2266 -2.5333,0.97874 -3,2.15437 -3,7.55761 0,7.71135 -2.0563,10.9328 -9.9204,15.54147 -4.7594,2.78918 -6.7864,5.21688 -10.0293,12.01186 -2.3758,4.9779 -4.4125,11.84643 -4.9022,16.53168 -0.7301,6.98463 -0.4291,8.67223 2.3404,13.12174 1.748,2.80842 4.1988,7.359 5.4463,10.11237 2.8279,6.24161 6.1325,6.49693 13.0614,1.0092 5.8632,-4.64375 6.0678,-5.27676 7.9742,-24.66972 2.7588,-28.06329 5.2769,-35.54792 13.6841,-40.67387 2.39,-1.45722 6.3208,-2.65174 8.735,-2.65448 l 4.3895,-0.005 -5.3895,5.12688 c -6.5629,6.24311 -7.4144,12.18912 -2.0929,14.61376 5.6445,2.5718 5.641,8.14427 -0.017,26.57649 -1.6141,5.25844 2.6373,4.98624 10.297,-0.65929 3.8993,-2.87395 9.7153,-6.87795 12.92451,-8.8978 3.20906,-2.01984 11.32666,-9.28167 18.03906,-16.13739 11.7267,-11.9772 17.9061,-16.17066 21.6893,-14.71892 2.7186,1.04323 2.1047,3.36634 -1.23,4.65447 -1.65,0.63737 -4.4011,2.66561 -6.1136,4.5072 -3.0187,3.24635 -3.043,3.45603 -0.7966,6.88445 2.2213,3.39016 2.2072,3.68432 -0.3423,7.12647 -1.4626,1.97469 -4.7042,4.89625 -7.2034,6.49235 -4.5466,2.90362 -21.0216,16.81368 -30.74037,25.9544 -6.3682,5.98946 -5.8491,9.1436 1.5047,9.1436 2.7627,0 7.64847,-0.93051 10.85727,-2.06779 6.8865,-2.44068 15.0597,-3.68524 25.1421,-3.82843 5.7237,-0.0813 7.3994,0.36387 7.7305,2.05376 0.3301,1.6841 -0.9822,2.29258 -5.9802,2.77282 -4.2698,0.41026 -11.5098,3.19365 -21.7306,8.35414 -8.43,4.25639 -18.62737,8.74903 -22.66067,9.98364 l -7.3334,2.24476 -0.01,8.57688 c -0.011,10.42918 -1.2995,12.83159 -8.8223,16.44247 -5.2218,2.5064 -5.88,3.34085 -6.2573,7.93187 -0.2842,3.45893 0.3286,5.95977 1.8807,7.67485 2.8361,3.1338 1.7597,4.45601 -2.7135,3.33332 -5.9821,-1.50143 -7.79,-6.03635 -6.1068,-15.31852 1.6565,-9.13515 0.5879,-20.69584 -2.1209,-22.94392 -1.1197,-0.92931 -5.6052,-1.31176 -11.7469,-1.00161 -8.2545,0.41684 -10.5139,1.045 -13.3533,3.71249 -1.8797,1.76592 -3.4177,4.57216 -3.4177,6.23608 0,4.55835 -4.7309,7.20808 -11.2693,6.31188 -6.9165,-0.948 -8.407,0.68377 -10.0943,11.05088 -2.2395,13.75957 -8.724,19.07251 -20.449,16.75419 -7.2776,-1.43847 -11.5214,-0.31142 -11.5214,3.05992 0,2.42569 -4.1452,4.66666 -8.6321,4.66666 -3.7212,0 -13.2929,4.40122 -16.4604,7.56864 -1.6795,1.67951 -2.3735,1.50486 -5.4169,-1.3632 -1.9877,-1.87314 -5.787,-3.60853 -8.8239,-4.03044 -2.9334,-0.40752 -5.4106,-0.76361 -5.505,-0.7913 -0.094,-0.0277 -0.9221,-1.86251 -1.8396,-4.07736 -2.5834,-6.23707 -9.0306,-11.0313 -13.6045,-10.11652 -3.3206,0.66412 -5.3062,-0.59379 -15.8266,-10.02647 l -12.0297,-10.78585 -5.4134,1.37406 c -5.2407,1.33024 -5.5681,1.2138 -10.264,-3.65042 -2.6678,-2.76347 -8.045,-7.24768 -11.9494,-9.96492 l -7.0988,-4.94044 -5.8787,3.44512 c -3.2332,1.89481 -7.5388,5.66105 -9.5678,8.36942 -6.4364,8.59127 -13.3668,14.67844 -18.6087,16.34462 -2.7943,0.88818 -8.0805,4.48205 -11.7472,7.98638 -5.939,5.67575 -18.0634,13.32502 -21.1212,13.32502 -1.323,0 -9.0787,3.23968 -14.8788,6.21511 -5.3688,2.75417 -21.9405,8.21781 -49.3334,16.26508 -25.95542,7.62506 -35.92116,10.06566 -49.99996,12.24516 -5.5,0.8515 -12.70484,1.9783 -16.01076,2.5041 -3.30592,0.5257 -12.45592,1.1039 -20.33333,1.2848 -11.12164,0.2554 -14.32163,-0.063 -14.31836,-1.426 z M 910.00653,883.70686 c 0.5743,-5.91147 -1.957,-14.43038 -5.4564,-18.36248 -2.6514,-2.9793 -4.3215,-3.40751 -16.2876,-4.1761 -21.4349,-1.37676 -31.0404,2.7726 -22.5578,9.74444 8.9146,7.32692 35.0136,18.07958 41.8911,17.25896 1.2036,-0.14361 2.1635,-1.9215 2.4107,-4.46482 z"
       id="path639" />
  </g>
</svg>
